General
Complete name                    : The Contractor.mkv
Format                           : Matroska
File size                        : 1.07 GiB
Duration                         : 1h 34mn
Overall bit rate                 : 1 620 Kbps


Video
ID                               : 1
Format                           : AVC
Codec ID                         : V_MPEG4/ISO/AVC
Duration                         : 1h 34mn
Bit rate                         : 1 139 Kbps
Width                            : 720 pixels
Height                           : 546 pixels
Display aspect ratio             : 1.875
Frame rate                       : 25.000 fps
Resolution                       : 8 bits
Colorimetry                      : 4:2:0
Scan type                        : Progressive
Bits/(Pixel*Frame)               : 0.116
Stream size                      : 770 MiB (70%)
Writing library                  : x264 core 79


Audio
ID                               : 2
Format                           : AC-3
Format/Info                      : Audio Coding 3
Codec ID                         : A_AC3
Duration                         : 1h 34mn
Bit rate mode                    : Constant
Bit rate                         : 448 Kbps
Channel(s)                       : 6 channels
Channel positions                : Front: L C R, Surround: L R, LFE
Sampling rate                    : 48.0 KHz
Stream size                      : 303 MiB (28%)
Language                         : English

Text #1
Language                         : English

Text #2
Language                         : Czech

Text #3
Language                         : Hungarian

Text #4
Language                         : Polish

Text #5
Language                         : Arabic

Text #6
Language                         : Croatian

Text #7
Language                         : Danish

Text #8
Language                         : Finnish

Text #9
Language                         : Greek

Text #10
Language                         : ??? XXXXX ?????

Text #11
Language                         : Hindi

Text #12
Language                         : Norwegian

Text #13
Language                         : Romanian

Text #14
Language                         : Slovenian

Text #15
Language                         : Swedish

Text #16
Language                         : Turkish








